<svg width="623" height="133" viewBox="0 0 623 133" fill="none" xmlns="http://www.w3.org/2000/svg">
<g clip-path="url(#clip0_1451_10249)">
<path d="M5.34928 40.6527L53.1107 10.8509L103.814 39.3154L99.1527 88.2973L54.5627 123.639L26.0968 102.663L8.10034 75.0393L5.34928 40.6527Z" fill="#61F2C1"/>
<path d="M81.844 17.8811L58.8803 4.58489C58.8803 4.58489 56.5877 3.28584 55.6707 2.44527C54.7155 1.5665 54.5626 0 54.5626 0C54.5626 0 54.4862 1.60471 53.4546 2.44527C52.2701 3.43867 50.2832 4.58489 50.2832 4.58489L27.3195 17.8429L0 33.6225V46.9951C0 93.4935 19.7923 111.91 50.2832 128.415C50.2832 128.415 52.3083 129.561 53.4928 130.555C54.5244 131.433 54.6009 133 54.6009 133C54.6009 133 54.7537 131.433 55.7089 130.555C56.2056 130.096 57.0462 129.523 57.734 129.103C88.8745 113.209 109.164 94.869 109.164 46.9569V33.5843L81.8822 17.8429L81.844 17.8811ZM98.1211 54.1781C98.1211 56.5852 98.0064 58.9158 97.8154 61.1701C97.8154 61.1701 97.6626 62.4309 97.4333 64.2649C97.3569 64.838 97.204 65.9842 97.204 65.9842C96.7837 68.8498 95.5611 73.7403 95.5611 73.7403C95.5611 73.7403 95.7521 66.7101 95.0643 64.7234L54.5626 41.3404L48.7167 44.7409L43.7877 47.6064L94.6058 76.9497C88.8363 93.4935 75.8451 105.911 54.5626 118.176C31.8282 105.07 18.5696 92.3473 13.4496 73.8931C13.4496 73.8931 13.2968 73.32 13.0675 72.403C13.0675 72.3266 13.0293 72.212 12.9911 72.1356C12.3033 69.4993 11.0042 62.2781 11.0042 62.2781C11.0042 62.2781 13.9463 68.6587 15.3983 70.1488L55.4797 93.2643C59.0713 91.2011 61.0964 88.6794 63.6946 85.5846L11.0042 55.1333C11.0042 54.8276 11.0042 40.3852 11.0042 40.3852L32.7834 27.815L54.5626 15.2448L76.3419 27.815L98.1211 40.3852V54.1781Z" fill="white"/>
<path d="M154.9 58.6102C154.136 58.2663 153.028 57.7696 151.614 57.1583C147.143 55.2479 141.794 52.1913 141.794 48.447C141.794 46.5366 142.52 45.0465 143.972 43.8621C145.5 42.6013 147.564 41.99 150.162 41.99C152.34 41.99 154.174 42.4102 155.664 43.289C157.116 44.1296 158.339 45.4668 159.256 47.2244L157.88 51.1979L171.215 38.3602L170.451 37.3286C167.967 34.0428 165.102 31.5593 161.854 29.9928C158.606 28.4263 154.747 27.6622 150.353 27.6622C142.826 27.6622 136.598 29.6108 131.822 33.5079C126.969 37.4433 124.485 42.5631 124.485 48.7145C124.485 53.1847 125.746 57.1201 128.306 60.3677C130.79 63.5771 135.069 66.7484 141.374 69.996C142.635 70.6837 144.392 71.5243 146.57 72.5941C152.646 75.5361 155.855 78.478 155.855 81.1143C155.855 83.445 155.053 85.2789 153.371 86.6162C151.614 88.0299 149.168 88.7558 146.035 88.7558C141.909 88.7558 138.623 87.1511 135.642 83.7889C135.566 83.6742 135.49 83.5596 135.413 83.445L136.025 76.9497L123.301 91.0483L123.759 91.927C125.746 95.6332 128.841 98.4987 132.853 100.447C136.827 102.358 141.641 103.351 147.105 103.351C154.9 103.351 161.243 101.288 165.904 97.1997C170.642 93.0733 173.049 87.4568 173.049 80.5794C173.049 75.9181 171.521 71.7535 168.464 68.1238C165.522 64.6087 160.975 61.3993 154.938 58.6484L154.9 58.6102Z" fill="white"/>
<path d="M181.188 101.517H202.623C203.234 101.517 201.095 101.02 201.095 100.447V30.4131C201.095 29.8018 203.12 29.3433 202.508 29.3433H181.302C180.691 29.3433 183.404 29.84 183.404 30.4131V100.409C183.404 101.02 180.615 101.479 181.188 101.479V101.517Z" fill="white"/>
<path d="M232.77 46.4984L224.593 29.9546C224.402 29.5725 224.02 29.3433 223.638 29.3433H203.769C203.769 29.3433 205.642 30.2985 206.1 30.9862L223.523 59.5271C223.944 60.2149 224.975 60.2149 225.396 59.5271L232.808 47.53C232.999 47.2244 232.999 46.8423 232.808 46.4984H232.77Z" fill="white"/>
<path d="M268.801 29.3433H252.219C251.836 29.3433 251.493 29.5343 251.263 29.8782L208.316 99.8742C207.896 100.6 205.985 101.517 205.985 101.517H223.141C223.562 101.517 223.944 101.288 224.097 100.906L235.368 78.4016C235.75 77.5993 236.897 77.5993 237.317 78.4016L248.168 100.256C248.359 100.638 246.22 101.517 246.22 101.517H266.279C267.12 101.517 267.655 100.6 267.196 99.8742L246.296 64.4177C246.105 64.0738 246.105 63.6535 246.296 63.3097L266.509 31.0244C266.967 30.2985 268.725 29.3815 268.725 29.3815L268.801 29.3433Z" fill="white"/>
<path d="M420.339 29.3433H400.661C400.203 29.3433 399.782 29.649 399.629 30.0692L385.989 70.9894C385.836 71.4097 385.683 71.9446 385.53 72.5941C385.377 72.021 385.225 71.5243 385.11 71.104L371.66 30.0692C371.507 29.6107 371.087 29.3051 370.629 29.3051H350.722C350.722 29.3051 353.549 29.6872 353.473 30.2221L342.621 101.479H362.49C362.49 101.479 359.663 101.059 359.739 100.524L364.821 58.2281C364.974 57.1201 365.088 56.0503 365.165 54.9805C365.318 55.5536 365.394 55.9356 365.47 56.1649L379.99 100.715C380.143 101.173 380.563 101.479 381.022 101.479H389.848C390.306 101.479 390.727 101.173 390.879 100.753L405.628 56.2031C405.705 55.9739 405.781 55.7446 405.857 55.4772C405.972 56.3559 406.087 57.3493 406.201 58.4191L411.321 100.524C411.398 101.059 408.57 101.479 408.57 101.479H430.999C430.999 101.479 428.363 100.906 428.248 100.218L417.549 30.2221C417.473 29.6872 420.301 29.3051 420.301 29.3051L420.339 29.3433Z" fill="white"/>
<path d="M295.509 30.031L268.878 100.027C268.61 100.753 269.145 101.479 269.871 101.479H290.351C290.351 101.479 287.409 101.173 287.562 100.715L291.918 87.495C292.071 87.0365 292.491 86.7308 292.949 86.7308H316.257C316.716 86.7308 317.098 86.9983 317.25 87.4185L322.332 100.753C322.485 101.173 319.505 101.441 319.505 101.441H340.902C341.666 101.441 342.201 100.677 341.895 99.9506L314.92 29.9546C314.767 29.5343 317.747 29.2669 317.747 29.2669H292.682C292.682 29.2669 295.662 29.5343 295.509 29.9546V30.031ZM298.795 72.2884C298.069 72.2884 297.535 71.5625 297.764 70.8747L304.145 52.0767C304.298 51.58 304.527 50.7394 304.794 49.5168C305.024 50.5484 305.253 51.3125 305.406 51.8475L312.016 70.9129C312.245 71.6007 311.748 72.3648 310.984 72.3648H298.795V72.2884Z" fill="white"/>
<path d="M506.997 51.0069C505.087 46.4602 502.297 42.372 498.667 38.8187C491.637 32.056 482.352 28.0824 471.615 27.4711C471.539 27.4711 471.501 27.4711 471.424 27.4711C460.535 28.1207 451.174 32.0942 444.219 38.8187C440.551 42.3338 437.724 46.422 435.852 50.9687C433.941 55.4772 432.986 60.4059 432.986 65.5639C432.986 71.295 434.209 76.7587 436.616 81.7639C439.023 86.769 442.538 91.1247 447.047 94.7162C450.524 97.4671 454.421 99.6449 458.624 101.135C462.827 102.625 467.145 103.351 471.539 103.351C476.506 103.351 481.435 102.396 486.097 100.485C490.758 98.5751 494.999 95.8242 498.706 92.2709C502.297 88.794 505.087 84.7058 506.997 80.1591C508.908 75.5743 509.863 70.6837 509.863 65.5639C509.863 60.4441 508.908 55.5536 506.997 51.0069ZM491.752 65.5639C491.752 71.7917 489.803 77.0261 486.02 81.1525C482.199 85.2789 477.423 87.3039 471.501 87.3039C465.578 87.3039 460.649 85.3172 456.828 81.1908C453.046 77.1026 451.097 71.8681 451.097 65.5639C451.097 59.2597 453.046 54.1017 456.905 49.9371C460.802 45.7343 465.54 43.7093 471.463 43.7093C477.385 43.7093 482.008 45.7725 485.906 49.9753C489.765 54.1781 491.713 59.4125 491.713 65.5639H491.752Z" fill="white"/>
<path d="M137.362 128.492V120.086H139.425L143.552 124.976C143.552 124.976 143.819 125.32 143.934 125.55C144.087 125.817 144.239 126.084 144.392 126.428C144.354 126.161 144.316 125.932 144.278 125.702C144.278 125.473 144.278 125.167 144.278 124.785V120.086H146.188V128.492H144.239L139.96 123.525C139.96 123.525 139.693 123.181 139.578 122.951C139.425 122.684 139.272 122.417 139.119 122.073C139.158 122.302 139.196 122.569 139.234 122.799C139.234 123.028 139.234 123.372 139.234 123.716V128.492H137.324H137.362Z" fill="white"/>
<path d="M161.395 128.492V120.086H166.898V121.614H163.382V123.334H166.898V124.862H163.382V126.963H166.898V128.492H161.395Z" fill="white"/>
<path d="M184.436 122.264C184.436 122.264 184.627 122.569 184.665 122.684C184.741 122.799 184.779 122.951 184.818 123.066C184.856 122.913 184.932 122.799 185.009 122.646C185.085 122.531 185.161 122.378 185.276 122.226L186.613 120.048H188.753L185.964 124.059L188.868 128.453H186.69L185.314 126.123C185.314 126.123 185.161 125.817 185.085 125.664C185.009 125.511 184.97 125.359 184.894 125.167C184.818 125.359 184.741 125.55 184.665 125.702C184.588 125.855 184.512 126.008 184.436 126.123L183.06 128.415H180.92L183.824 124.021L180.997 120.009H183.136L184.474 122.226L184.436 122.264Z" fill="white"/>
<path d="M206.444 121.614V128.492H204.419V121.614H202.126V120.086H208.698V121.614H206.406H206.444Z" fill="white"/>
<path d="M244.921 124.059H249.2C249.2 124.059 249.2 124.174 249.2 124.212C249.2 124.25 249.2 124.365 249.2 124.48C249.2 125.741 248.818 126.772 248.016 127.536C247.213 128.3 246.181 128.721 244.921 128.721C243.469 128.721 242.284 128.3 241.329 127.46C240.374 126.619 239.915 125.588 239.915 124.289C239.915 122.99 240.374 121.958 241.329 121.156C242.284 120.315 243.469 119.895 244.921 119.895C245.685 119.895 246.373 120.048 247.022 120.315C247.672 120.621 248.207 121.041 248.741 121.614L247.404 122.493C247.06 122.111 246.716 121.843 246.334 121.691C245.952 121.538 245.532 121.461 245.035 121.461C244.118 121.461 243.354 121.729 242.819 122.226C242.246 122.722 241.978 123.448 241.978 124.289C241.978 125.129 242.246 125.817 242.819 126.352C243.392 126.887 244.118 127.116 244.997 127.116C245.647 127.116 246.181 126.963 246.602 126.696C247.022 126.428 247.213 126.046 247.213 125.626V125.55H244.959V124.059H244.921Z" fill="white"/>
<path d="M263.872 128.492V120.086H269.374V121.614H265.859V123.334H269.374V124.862H265.859V126.963H269.374V128.492H263.872Z" fill="white"/>
<path d="M284.467 128.492V120.086H286.53L290.657 124.976C290.657 124.976 290.924 125.32 291.039 125.55C291.192 125.817 291.345 126.084 291.498 126.428C291.459 126.161 291.421 125.932 291.383 125.702C291.383 125.473 291.383 125.167 291.383 124.785V120.086H293.293V128.492H291.345L287.065 123.525C287.065 123.525 286.798 123.181 286.683 122.951C286.53 122.684 286.378 122.417 286.225 122.073C286.263 122.302 286.301 122.569 286.339 122.799C286.339 123.028 286.339 123.372 286.339 123.716V128.492H284.429H284.467Z" fill="white"/>
<path d="M308.501 128.492V120.086H314.003V121.614H310.487V123.334H314.003V124.862H310.487V126.963H314.003V128.492H308.501Z" fill="white"/>
<path d="M335.858 128.492H333.566L331.12 124.556V128.492H329.134V120.086H331.999C333.145 120.086 333.986 120.277 334.559 120.697C335.132 121.079 335.4 121.691 335.4 122.493C335.4 123.066 335.209 123.563 334.827 123.983C334.445 124.403 333.948 124.633 333.337 124.709L335.935 128.53L335.858 128.492ZM331.082 123.677H331.388C332.19 123.677 332.725 123.601 332.993 123.448C333.26 123.295 333.375 123.028 333.375 122.608C333.375 122.187 333.222 121.92 332.954 121.729C332.687 121.538 332.152 121.461 331.388 121.461H331.082V123.677Z" fill="white"/>
<path d="M349.002 128.492L352.556 120.086H354.848L358.478 128.492H356.186L355.421 126.696H351.792L351.142 128.492H349.002ZM354.963 125.282L353.931 122.569C353.931 122.569 353.855 122.34 353.817 122.149C353.778 121.958 353.702 121.729 353.664 121.423C353.626 121.691 353.549 121.92 353.511 122.149C353.473 122.378 353.435 122.493 353.396 122.569L352.403 125.244H355.001L354.963 125.282Z" fill="white"/>
<path d="M376.054 121.614V128.492H374.029V121.614H371.737V120.086H378.309V121.614H376.016H376.054Z" fill="white"/>
<path d="M392.79 128.492V120.086H394.777V128.492H392.79Z" fill="white"/>
<path d="M419.651 124.289C419.651 124.9 419.536 125.473 419.269 126.008C419.001 126.543 418.658 127.001 418.199 127.422C417.702 127.842 417.167 128.148 416.556 128.377C415.945 128.606 415.333 128.721 414.646 128.721C414.072 128.721 413.499 128.644 412.964 128.453C412.429 128.262 411.895 128.033 411.474 127.689C410.901 127.269 410.443 126.772 410.137 126.199C409.831 125.626 409.678 124.976 409.678 124.327C409.678 123.716 409.793 123.142 410.06 122.608C410.328 122.073 410.672 121.614 411.13 121.194C411.589 120.774 412.162 120.468 412.773 120.239C413.385 120.009 414.034 119.895 414.684 119.895C415.333 119.895 415.983 120.009 416.594 120.239C417.206 120.468 417.74 120.774 418.237 121.194C418.696 121.614 419.078 122.073 419.307 122.608C419.536 123.142 419.689 123.716 419.689 124.289H419.651ZM414.646 127.078C415.486 127.078 416.212 126.81 416.747 126.275C417.282 125.741 417.588 125.091 417.588 124.289C417.588 123.486 417.32 122.837 416.747 122.264C416.174 121.729 415.486 121.461 414.646 121.461C413.805 121.461 413.079 121.729 412.544 122.264C412.009 122.799 411.703 123.486 411.703 124.289C411.703 125.091 411.971 125.779 412.544 126.314C413.079 126.849 413.805 127.116 414.684 127.116L414.646 127.078Z" fill="white"/>
<path d="M434.438 128.492V120.086H436.501L440.628 124.976C440.628 124.976 440.895 125.32 441.01 125.55C441.163 125.817 441.316 126.084 441.468 126.428C441.43 126.161 441.392 125.932 441.354 125.702C441.354 125.473 441.354 125.167 441.354 124.785V120.086H443.264V128.492H441.316L437.036 123.525C437.036 123.525 436.807 123.181 436.654 122.951C436.501 122.722 436.348 122.417 436.196 122.073C436.234 122.302 436.272 122.569 436.31 122.799C436.31 123.028 436.31 123.372 436.31 123.716V128.492H434.4H434.438Z" fill="white"/>
<path d="M479.066 121.614V128.492H477.041V121.614H474.749V120.086H481.321V121.614H479.028H479.066Z" fill="white"/>
<path d="M502.565 128.492H500.272L497.827 124.556V128.492H495.84V120.086H498.706C499.852 120.086 500.693 120.277 501.266 120.697C501.839 121.079 502.106 121.691 502.106 122.493C502.106 123.066 501.915 123.563 501.533 123.983C501.151 124.403 500.654 124.633 500.043 124.709L502.641 128.53L502.565 128.492ZM497.789 123.677H498.094C498.897 123.677 499.432 123.601 499.699 123.448C499.967 123.295 500.081 123.028 500.081 122.608C500.081 122.187 499.928 121.92 499.661 121.729C499.393 121.538 498.859 121.461 498.094 121.461H497.789V123.677Z" fill="white"/>
<path d="M515.709 128.492L519.262 120.086H521.555L525.185 128.492H522.892L522.128 126.696H518.498L517.848 128.492H515.709ZM521.669 125.282L520.638 122.569C520.638 122.569 520.561 122.34 520.523 122.149C520.485 121.958 520.408 121.729 520.37 121.423C520.332 121.691 520.256 121.92 520.217 122.149C520.179 122.378 520.141 122.493 520.103 122.569L519.109 125.244H521.708L521.669 125.282Z" fill="white"/>
<path d="M539.284 128.492V120.086H541.844C542.837 120.086 543.64 120.162 544.213 120.277C544.786 120.392 545.321 120.621 545.741 120.926C546.314 121.309 546.735 121.767 547.04 122.378C547.346 122.951 547.499 123.601 547.499 124.327C547.499 125.053 547.346 125.741 547.04 126.314C546.735 126.887 546.314 127.345 545.741 127.727C545.321 127.995 544.824 128.186 544.327 128.339C543.792 128.453 543.028 128.53 542.035 128.53H539.322L539.284 128.492ZM541.271 126.963H542.379C543.41 126.963 544.175 126.734 544.671 126.314C545.13 125.893 545.397 125.206 545.397 124.289C545.397 123.372 545.168 122.684 544.671 122.264C544.175 121.843 543.41 121.614 542.379 121.614H541.271V126.963Z" fill="white"/>
<path d="M562.286 128.492V120.086H564.273V128.492H562.286Z" fill="white"/>
<path d="M579.518 128.492V120.086H581.581L585.708 124.976C585.708 124.976 585.975 125.32 586.09 125.55C586.243 125.817 586.396 126.084 586.548 126.428C586.51 126.161 586.472 125.932 586.434 125.702C586.434 125.473 586.434 125.167 586.434 124.785V120.086H588.344V128.492H586.396L582.116 123.525C582.116 123.525 581.887 123.181 581.734 122.951C581.581 122.722 581.428 122.417 581.276 122.073C581.314 122.302 581.352 122.569 581.39 122.799C581.39 123.028 581.39 123.372 581.39 123.716V128.492H579.48H579.518Z" fill="white"/>
<path d="M608.175 124.059H612.454C612.454 124.059 612.454 124.174 612.454 124.212C612.454 124.25 612.454 124.365 612.454 124.48C612.454 125.741 612.072 126.772 611.27 127.536C610.467 128.3 609.436 128.721 608.175 128.721C606.723 128.721 605.538 128.3 604.583 127.46C603.628 126.619 603.169 125.588 603.169 124.289C603.169 122.99 603.628 121.958 604.583 121.156C605.538 120.353 606.723 119.895 608.175 119.895C608.939 119.895 609.627 120.048 610.276 120.315C610.926 120.583 611.461 121.041 611.996 121.614L610.658 122.493C610.315 122.111 609.971 121.843 609.589 121.691C609.206 121.538 608.786 121.461 608.289 121.461C607.372 121.461 606.608 121.729 606.073 122.226C605.538 122.722 605.233 123.448 605.233 124.289C605.233 125.129 605.5 125.817 606.073 126.352C606.646 126.887 607.372 127.116 608.251 127.116C608.901 127.116 609.436 126.963 609.856 126.696C610.276 126.428 610.467 126.046 610.467 125.626V125.55H608.213V124.059H608.175Z" fill="white"/>
<path d="M530.075 100.982V31.674H564.387V37.5961H536.38V59.2597H563.356V65.1818H536.38V100.982H530.075Z" fill="white"/>
<path d="M580.626 100.982H573.71L594.878 64.5323L575.735 31.674H582.842L598.47 59.1833L614.25 31.674H621.09L601.947 64.3413L623 100.982H616.008L598.393 70.2634L580.626 100.982Z" fill="white"/>
</g>
<defs>
<clipPath id="clip0_1451_10249">
<rect width="623" height="133" fill="white"/>
</clipPath>
</defs>
</svg>
